<svg width="194" height="50" viewBox="0 0 194 50" fill="none" xmlns="http://www.w3.org/2000/svg">
<path d="M99.5058 21.9127C100.279 21.6334 100.647 21.7416 100.609 22.2373C97.3033 24.3511 95.7274 25.4872 95.8811 25.6456C95.6172 26.0266 95.8073 26.1971 96.4517 26.1573C97.6114 25.8654 98.9674 25.3593 100.52 24.6389C102.082 23.9105 102.812 23.6731 102.708 23.9266C102.399 24.4393 101.131 25.1527 98.9041 26.0667C96.6875 26.9728 95.3751 27.3381 94.9669 27.1628C94.5588 26.9875 94.3838 26.4832 94.442 25.6498L88.806 28.1884C88.0938 28.4259 87.4754 28.5478 86.9508 28.554C86.4362 28.5522 86.2072 28.3236 86.2637 27.868C88.2217 25.5657 89.6618 24.2432 90.5839 23.9005C91.505 23.5518 91.7529 23.6286 91.3275 24.1309C88.669 26.2849 87.4491 27.4632 87.6678 27.6658C87.8976 27.8665 89.3586 27.3077 92.0508 25.9895C94.7419 24.6652 97.2269 23.3063 99.5058 21.9127Z" fill="black"/>
<path d="M111.298 20.7442C111.713 20.9556 111.803 21.2737 111.57 21.6987C111.466 22.2061 109.869 23.0643 106.78 24.2733C106.072 24.7267 105.877 25.0459 106.196 25.2308L110.703 23.5789L110.96 23.6727L110.985 23.8168L105.401 26.3556C105.856 28.5402 105.414 29.918 104.075 30.4892L102.257 31.2567L99.8906 31.8334L97.8198 31.9493L96.9765 31.7365L96.3672 31.2967L96.1712 30.8672C96.2259 30.2077 97.0475 29.4588 98.6362 28.6206C102.762 26.8814 104.778 25.7448 104.684 25.2107C103.709 25.3833 103.115 25.4543 102.904 25.4236C102.692 25.3869 102.67 25.2639 102.839 25.0545C103.008 24.8452 104.255 24.3707 106.581 23.6309L109.2 22.5453C110.928 21.4597 110.896 21.0227 109.105 21.2346C107.314 21.4464 106.322 21.8139 106.129 22.337C105.608 22.4291 105.294 22.3641 105.186 22.1418C105.089 21.9176 105.266 21.6883 105.716 21.454C106.177 21.2176 107.068 20.9608 108.391 20.6834C109.926 20.5107 110.895 20.531 111.298 20.7442ZM97.4711 30.8506L98.3328 31.2644L98.7422 31.3497L99.7158 31.2331L100.229 31.1329L101.181 30.8902C103.371 30.3539 104.444 29.31 104.398 27.7586L104.293 27.2664L103.971 26.8965C103.464 27.0048 102.857 27.2856 102.149 27.7389C101.681 28.0012 100.768 28.4629 99.411 29.124C98.8381 29.374 98.3495 29.6802 97.9451 30.0426C97.5385 30.2631 97.3804 30.5325 97.4711 30.8506Z" fill="black"/>
<path d="M141.672 7.46749C142.191 7.30133 142.481 7.35828 142.542 7.63836C139.688 10.2355 135.562 13.395 130.164 17.117C128.295 18.8278 127.455 19.6666 127.644 19.6332C132.851 16.8982 140.378 12.3908 150.226 6.11115C151.194 5.7726 151.617 5.80602 151.495 6.21141L141.971 12.836C138.091 15.8375 136.138 17.5201 136.111 17.8838C136.083 18.2475 137.686 17.7442 140.917 16.3738C144.148 14.9974 145.785 14.4322 145.828 14.6783C145.872 14.9243 144.382 15.6739 141.358 16.927C138.344 18.1722 136.531 18.8738 135.919 19.0316C135.318 19.1875 134.913 19.1881 134.703 19.0335C134.492 18.8788 134.482 18.497 134.671 17.8879C134.777 17.4545 136.531 15.9681 139.933 13.4288C139.914 13.3208 138.1 14.4062 134.493 16.6849C130.885 18.9636 128.186 20.3388 126.395 20.8105C125.824 20.8805 125.648 20.692 125.866 20.2449C127.727 18.0403 131.626 14.89 137.564 10.794L140.747 8.34594L140.681 8.35771C134.669 11.6438 129.696 14.9254 125.762 18.2025C121.827 21.4736 119.546 23.0842 118.92 23.0341C118.305 22.982 118.19 22.4578 118.573 21.4616C118.968 20.4634 119.456 19.8633 120.038 19.6614C120.629 19.4515 121.055 19.438 121.316 19.6208C121.576 19.7976 121.506 19.9213 121.107 19.9919C120.719 20.0545 120.455 20.4355 120.315 21.1347C129.515 13.9052 136.634 9.34952 141.672 7.46749Z" fill="black"/>
<path d="M157.308 10.0682C158.576 9.56973 159.455 9.33273 159.943 9.35715C160.437 9.374 160.72 9.5032 160.792 9.74478C160.863 9.98003 160.738 10.3903 160.416 10.9754C159.432 12.0039 158.555 12.4723 157.783 12.3807L157.323 12.2665C157 12.0171 157.024 11.5075 157.393 10.7378C156.927 11.0029 156.442 11.3104 155.94 11.6603C154.668 12.557 154.026 13.2349 154.012 13.6939C153.734 14.4865 154.033 14.789 154.909 14.6013C159.694 12.8804 162.091 12.2116 162.1 12.5947C157.854 14.3375 155.323 15.2617 154.506 15.3672C153.689 15.4728 153.247 15.3586 153.18 15.0247C152.773 14.2556 153.04 13.3637 153.983 12.3491C154.931 11.3269 156.039 10.5666 157.308 10.0682ZM157.389 10.7776C157.93 10.6819 158.332 10.7803 158.597 11.0726C157.176 11.9958 157.23 12.1981 158.759 11.6797C159.376 11.2313 159.768 10.8358 159.935 10.4933C160.101 10.1444 159.937 10.0071 159.444 10.0813C158.957 10.1479 158.272 10.38 157.389 10.7776Z" fill="black"/>
<path d="M145.351 16.7436C144.548 16.74 144.019 16.5533 143.765 16.1834C143.526 15.8136 143.509 15.3727 143.714 14.861C144.041 14.0439 144.589 13.2548 145.358 12.4937C146.146 11.7237 147.05 11.0891 148.069 10.5899C149.062 10.0816 150.052 9.82965 151.041 9.83402C152.462 9.84031 152.921 10.472 152.417 11.7289C152.166 12.3574 151.731 12.9986 151.114 13.6525C150.496 14.3063 149.799 14.8879 149.023 15.3971C148.262 15.9065 147.535 16.272 146.843 16.4938C146.312 16.6624 145.814 16.7456 145.351 16.7436ZM145.779 16.1383C146.257 16.1404 146.887 15.9004 147.668 15.4181C148.465 14.936 149.207 14.3366 149.897 13.6201C150.601 12.9037 151.054 12.2941 151.255 11.7913C151.464 11.2705 151.539 10.947 151.481 10.8209C151.443 10.6858 151.364 10.591 151.247 10.5365C151.13 10.482 150.924 10.4541 150.631 10.4528C150.306 10.4514 149.938 10.5217 149.525 10.6638C148.71 10.921 147.913 11.3672 147.133 12.0024C145.933 12.9505 145.154 13.8735 144.794 14.7713C144.55 15.3819 144.682 15.8052 145.191 16.0413C145.382 16.1051 145.578 16.1374 145.779 16.1383Z" fill="black"/>
<path d="M37.3593 37.1508C36.5562 37.1472 36.0276 36.9605 35.7734 36.5906C35.5346 36.2208 35.5177 35.78 35.7226 35.2682C36.0497 34.4512 36.5976 33.6621 37.3665 32.9009C38.1544 32.1309 39.0582 31.4963 40.078 30.9971C41.0706 30.4888 42.061 30.2369 43.0495 30.2412C44.4703 30.2475 44.9291 30.8792 44.4259 32.1362C44.1743 32.7647 43.7397 33.4058 43.1221 34.0597C42.5045 34.7136 41.8076 35.2951 41.0313 35.8044C40.2704 36.3137 39.5439 36.6792 38.8517 36.901C38.3201 37.0696 37.8226 37.1528 37.3593 37.1508ZM37.7872 36.5456C38.266 36.5477 38.8959 36.3076 39.6768 35.8254C40.4733 35.3432 41.216 34.7438 41.9051 34.0273C42.6096 33.3109 43.0626 32.7013 43.2638 32.1985C43.4723 31.6777 43.5477 31.3543 43.4899 31.2281C43.4511 31.093 43.373 30.9982 43.2556 30.9437C43.1382 30.8892 42.9327 30.8613 42.6393 30.8601C42.315 30.8586 41.9464 30.9289 41.5337 31.071C40.7191 31.3283 39.9216 31.7745 39.1413 32.4096C37.9417 33.3577 37.1622 34.2807 36.8028 35.1785C36.5584 35.7891 36.6906 36.2124 37.1995 36.4485C37.3905 36.5123 37.5865 36.5447 37.7872 36.5456Z" fill="black"/>
<path d="M54.4732 33.2039C52.6033 33.5349 51.6282 33.4742 51.5482 33.0217C51.4423 32.4236 52.1527 31.6703 53.6793 30.7618C54.0208 30.5511 54.5364 30.2534 55.2259 29.8685C54.4643 30.0409 53.7329 30.1891 53.0317 30.3132C50.9948 30.6738 49.5679 30.7842 48.7511 30.6445C47.7889 31.0455 47.329 31.3656 47.3714 31.6048L47.3783 31.6439L47.6021 31.741C47.6122 31.7982 47.4879 31.8739 47.229 31.968C46.9693 32.0569 46.6724 32.1309 46.3385 32.19C45.5371 32.3318 45.1189 32.3039 45.0839 32.1063C45.0517 31.9243 45.2671 31.6823 45.7303 31.3804C46.1925 31.0733 46.778 30.7819 47.4869 30.5063C48.1948 30.2254 48.8827 30.0259 49.5505 29.9077C50.0514 29.819 50.376 29.8044 50.5243 29.864C50.5694 30.1189 51.1985 30.1711 52.4117 30.0207C52.7159 29.9883 53.085 29.9337 53.5191 29.8568C54.6545 29.6559 55.6294 29.4243 56.4439 29.1621C57.5825 28.5904 58.7362 28.2012 59.9049 27.9943C60.5087 27.9035 60.8212 27.9179 60.8424 28.0375C60.8635 28.1571 60.0095 28.488 58.2802 29.0301C57.743 29.3022 57.2738 29.5703 56.8729 29.8344L55.7118 30.571C54.3123 31.4194 53.6517 32.0647 53.7299 32.5068C53.7824 32.8032 54.1426 32.8924 54.8104 32.7741C55.6452 32.6264 56.9454 32.1897 58.7111 31.4641C58.9366 31.3759 59.1778 31.2796 59.4348 31.1751C59.6593 31.0817 59.8532 31.0098 60.0165 30.9595C60.2123 30.898 60.4771 30.8377 60.811 30.7786C61.4121 30.6722 61.72 30.6606 61.7347 30.7438C61.7393 30.7698 61.6794 30.8207 61.5551 30.8963C59.8488 31.5685 58.459 32.0827 57.3856 32.439C56.3122 32.7953 55.3414 33.0502 54.4732 33.2039Z" fill="black"/>
<path d="M69.0384 30.5854C66.1667 31.0938 64.677 31.0437 64.5692 30.4352C64.5296 30.2115 64.6984 29.9001 65.0754 29.5008L65.8582 28.6703L67.5492 26.8422C67.6754 26.777 67.8865 26.7048 68.1824 26.6256C68.4774 26.5412 68.7585 26.4753 69.0256 26.428C69.2594 26.3867 69.4973 26.3687 69.7393 26.3741C69.9813 26.3795 70.1069 26.4083 70.1162 26.4603L68.686 27.7192L67.3141 29.016C66.8462 29.485 66.6297 29.8183 66.6646 30.016C66.7033 30.2344 66.9313 30.355 67.3486 30.3777C67.7649 30.3951 68.4239 30.3241 69.3255 30.1645C70.7279 29.9162 71.8671 29.6395 72.7429 29.3343C73.6187 29.029 74.2357 28.7214 74.5941 28.4112C74.9209 28.1173 75.0691 27.8846 75.0387 27.713C74.9595 27.2657 74.2187 27.1662 72.8163 27.4144C71.9147 27.574 71.1164 27.8307 70.4213 28.1843C70.0427 28.3801 69.7082 28.5332 69.4178 28.6436C69.1581 28.7325 68.928 28.7947 68.7277 28.8301C68.1266 28.9365 67.8182 28.9455 67.8026 28.8571C67.7934 28.8051 68.1084 28.6394 68.7477 28.3599C69.4195 28.0694 69.9655 27.8467 70.3858 27.6918C71.295 27.3807 72.1503 27.1542 72.9517 27.0123C74.2874 26.7759 75.3233 26.6944 76.0596 26.7679C76.7958 26.8414 77.1892 27.0212 77.2398 27.3072C77.2978 27.6349 76.9668 28.0019 76.2466 28.4083C75.5599 28.8088 74.5792 29.2023 73.3045 29.5889C72.0298 29.9754 70.6078 30.3076 69.0384 30.5854Z" fill="black"/>
<path d="M173.086 8.79126C175.652 8.29246 178.614 7.26131 180.239 5.81223C181.693 4.51615 183.452 2.55289 182.314 1.16793C181.63 0.335176 177.447 4.82771 177.266 5.04689C176.139 6.41454 175.307 7.78566 174.58 9.21208C174.283 9.79336 173.838 10.4068 173.788 10.9993C173.774 11.1667 173.602 11.9369 174.012 11.9719C175.395 12.0901 178.4 10.9591 179.385 10.2845C180.796 9.31685 177.48 9.47213 176.871 9.53398C174.882 9.73596 173.186 10.2883 171.446 11.0008" stroke="black" stroke-width="0.5" stroke-linecap="round"/>
<path d="M165.647 9.21709C166.165 9.02309 166.406 9.08919 166.369 9.41537L164.619 11.2183L164.91 11.1443C166.919 9.9883 168.613 9.23515 169.99 8.88482C170.37 8.83921 170.513 8.92998 170.421 9.15711C166.156 11.0676 164.143 12.2868 164.381 12.8147C164.515 12.9446 164.767 12.9652 165.138 12.8766C167.421 12.2563 169.87 11.3563 172.486 10.1764C172.991 10.0254 173.14 10.1174 172.934 10.4526C171.605 11.3903 168.981 12.4423 165.062 13.6086C164.07 13.7818 163.434 13.5588 163.156 12.9395L161.089 14.042C160.837 14.0327 160.687 13.9407 160.641 13.7658L165.647 9.21709Z" fill="black"/>
<path d="M185.636 4.82874C186.153 4.56892 186.486 4.65613 186.634 5.09036C185.301 6.29176 184.609 7.04293 184.56 7.34389L184.529 7.42908L185.503 6.85812C187.713 5.74953 189.686 5.09474 191.422 4.89374C191.771 4.84081 191.937 5.02406 191.919 5.44348C191.086 6.40574 190.377 7.14667 189.794 7.66627C187.016 9.73435 185.929 10.7062 186.531 10.5818L187.991 10.1507L191.69 8.92462C192.832 8.60736 193.138 8.65514 192.607 9.06798C192.074 9.47223 191.194 9.88041 189.967 10.2925C188.748 10.6943 187.603 11.0563 186.534 11.3784C185.798 11.5617 185.358 11.591 185.213 11.4661C185.068 11.3412 185.069 11.1152 185.216 10.7881C185.361 10.4523 186.261 9.51818 187.915 7.98556C188.629 7.4517 189.12 7.07254 189.388 6.84807C189.653 6.61501 190.009 6.28192 190.455 5.84879L189.622 6.08923C185.542 7.3959 183.596 8.49313 183.784 9.38094C184.187 10.6735 183.138 11.5988 180.636 12.1568C179.923 12.2387 179.491 12.1691 179.339 11.9479C179.187 11.7268 179.178 11.4716 179.311 11.1824C181.155 8.98735 183.263 6.86946 185.636 4.82874ZM180.616 10.6591C180.238 11.1246 180.113 11.4035 180.242 11.4958C180.379 11.5778 180.762 11.5101 181.389 11.2928C182.828 10.861 183.302 10.1571 182.812 9.18108C182.579 9.01873 182.246 9.10854 181.815 9.45051C181.394 9.79073 180.995 10.1936 180.616 10.6591Z" fill="black"/>
<path d="M24.3511 28.8103C24.8986 28.7244 24.709 29.1562 23.7823 30.1057L27.7373 29.2978L35.23 27.8387C38.9765 27.1534 40.8673 26.9099 40.9025 27.1084C40.9466 27.2997 40.6398 27.4453 39.9821 27.5451C39.3235 27.6395 37.9031 27.9103 35.7209 28.3575C33.5477 28.7975 31.6834 29.1911 30.1282 29.5383L27.2178 30.178C24.2035 30.7226 22.1821 31.5285 21.1533 32.5956C19.8368 34.2336 17.6161 36.1977 14.4914 38.4877C13.4019 39.3277 11.9603 40.2301 10.1665 41.1948C8.37263 42.1595 7.32314 42.7048 7.018 42.8307C6.72183 42.9495 6.32734 43.0332 5.83455 43.0817C5.35072 43.1231 4.90191 42.9288 4.4881 42.4986L4.42259 42.1286C4.66361 41.5826 5.10117 41.3087 5.73529 41.3071C6.37933 41.3037 6.53446 41.4865 6.20069 41.8553C5.8759 42.217 6.02344 42.3569 6.64331 42.2748L8.84801 41.0299C12.3844 39.3308 16.0679 36.469 19.8986 32.4443L20.8023 31.4796L17.8181 32.0493C8.17356 33.8672 3.96497 35.1791 5.19228 35.9852C6.73542 36.4367 6.90674 36.7686 5.70625 36.9811C5.14072 37.0813 4.36631 36.8394 3.38299 36.2557C3.02311 35.899 3.26275 35.403 4.1019 34.7677C4.95002 34.1253 10.8204 32.721 21.713 30.555C22.9331 29.4706 23.8125 28.889 24.3511 28.8103ZM19.5676 35.8633C20.1019 35.7023 20.2808 35.8172 20.1044 36.208C20.1443 36.4333 19.1678 37.2754 17.175 38.7345C15.1812 40.1882 14.575 40.8099 15.3564 40.5997C16.1368 40.3841 16.8641 40.1862 17.5382 40.006C18.2213 39.8187 19.0931 39.5123 20.1536 39.0867L21.0137 38.7436C21.8787 38.4854 22.2945 38.4643 22.2611 38.6804C22.2377 38.8948 21.9933 39.104 21.5281 39.308C21.0618 39.5067 19.905 39.9079 18.0574 40.5115C16.3252 41.0726 15.0291 41.4099 14.1692 41.5234C13.3192 41.6351 13.126 41.3817 13.5895 40.7631C14.1834 40.0716 15.6829 38.8603 18.088 37.1292C18.2938 36.9046 18.787 36.4827 19.5676 35.8633Z" fill="black"/>
<path d="M47.7285 20.7558C48.2787 20.4537 48.9852 20.514 49.8479 20.9365C50.1165 21.1822 50.0237 21.323 49.5697 21.3592L48.1662 21.2342L36.9276 30.492L31.4637 35.002C33.2595 34.6841 34.1979 34.6674 34.279 34.9517C34.4204 35.1148 34.3409 35.3307 34.0406 35.5996C33.7403 35.8685 33.4268 36.1204 33.1 36.3552C32.7732 36.5901 32.5683 36.7619 32.4852 36.8706C36.1083 35.488 37.5503 35.1083 36.8113 35.7314C33.4931 37.1596 31.5935 37.9605 31.1126 38.1341C30.6416 38.306 30.1888 38.4359 29.7542 38.5239C29.3295 38.6102 29.1564 38.4998 29.2351 38.1927C32.3747 36.16 33.2695 35.3185 31.9193 35.6681C29.6274 36.0738 27.535 37.0859 25.642 38.7043C23.749 40.3226 22.4892 41.356 21.8625 41.8044C21.2349 42.2473 19.0884 43.5898 15.423 45.8317C13.7879 46.7683 12.0901 47.5528 10.3295 48.1853C8.55999 48.8249 7.26965 49.2524 6.45852 49.4679C5.63841 49.6905 4.959 49.7831 4.4203 49.7458C3.87263 49.7155 3.57475 49.4778 3.52666 49.0327C3.47857 48.5877 3.69789 48.0925 4.18461 47.5472C4.66141 47.0037 5.61788 46.2509 7.05403 45.2886C9.80545 43.4906 14.11 41.3624 19.9677 38.9039L21.4047 38.3508C27.2454 36.548 30.6134 35.0253 31.5088 33.7827L31.7978 33.5075C35.4239 30.6973 39.5631 27.3455 44.2151 23.452L47.7285 20.7558ZM5.05112 48.8873C5.25862 48.9612 5.72212 48.9207 6.44164 48.7657L9.25615 47.8443C13.2265 46.4003 16.9814 44.3748 20.5208 41.7681C24.0502 39.163 25.7394 37.8379 25.5881 37.7928C25.4359 37.7423 25.2382 37.7524 24.9949 37.8231C21.0809 38.776 16.1309 40.9576 10.145 44.3681C7.62515 45.6826 5.89207 46.9906 4.94574 48.292C4.79857 48.6168 4.8337 48.8152 5.05112 48.8873Z" fill="black"/>
</svg>
