<svg width="216" height="42" viewBox="0 0 216 42" fill="none" xmlns="http://www.w3.org/2000/svg">
<path d="M85.2537 28.9393C84.5361 28.9664 83.9059 28.8549 83.3633 28.6051C82.8439 28.3544 82.5772 28.0435 82.5632 27.6724C82.5581 27.5374 82.6081 27.3244 82.713 27.0333C83.3317 25.608 85.0295 23.9057 87.8065 21.9262L89.5256 21.4055C90.6267 21.0938 91.2238 20.9446 91.317 20.958C92.1774 21.027 92.6155 21.2723 92.6314 21.694C92.6618 22.5036 91.8007 23.3384 90.048 24.1982C88.4773 24.9668 87.0901 25.3737 85.8863 25.419C85.7705 25.4234 85.6548 25.4277 85.539 25.4321C85.4226 25.4196 85.3063 25.407 85.1899 25.3945C84.9673 25.6394 84.7672 25.8665 84.5896 26.0759C84.412 26.2853 84.2688 26.4849 84.1601 26.6748C83.9869 27.0023 83.9045 27.2756 83.9127 27.4949C83.9337 28.0515 84.2567 28.3181 84.8817 28.2946C85.5068 28.2711 86.5062 28.0308 87.8799 27.5737C89.2087 27.1521 90.1107 26.7887 90.5861 26.4837C90.7681 26.3924 90.9286 26.3441 91.0675 26.3389C91.2064 26.3337 91.2774 26.3732 91.2806 26.4576C91.2612 26.5596 91.1496 26.6736 90.9457 26.7995C90.6054 26.9982 90.2076 27.2074 89.7522 27.4272C89.3193 27.6293 88.8292 27.8504 88.2819 28.0906C86.8882 28.6329 85.8788 28.9158 85.2537 28.9393ZM86.9418 24.8219C87.7752 24.7905 88.6425 24.4285 89.5438 23.7358C90.3994 23.0617 90.8192 22.5139 90.8033 22.0922C90.7945 21.856 90.6392 21.7352 90.3376 21.7296C89.3377 21.649 87.8785 22.6076 85.96 24.6054C86.1978 24.7654 86.5251 24.8375 86.9418 24.8219Z" fill="#573225"/>
<path d="M177.962 17.4063C176.481 17.4621 175.723 17.0514 175.69 16.1743C175.681 15.9381 175.741 15.6656 175.868 15.3568C176.25 14.4134 177.198 13.4233 178.712 12.3866C180.111 11.3712 181.656 10.536 183.347 9.88121C184.352 9.48867 185.353 9.27367 186.348 9.23621C186.881 9.21618 187.151 9.30736 187.158 9.50978C187.163 9.64472 187.008 9.83636 186.693 10.0847C186.4 10.2984 186.194 10.3822 186.077 10.3359C185.654 10.1998 185.246 10.1391 184.853 10.1539C184.436 10.1696 184.022 10.2612 183.611 10.4287C182.151 11.0411 180.846 11.7996 179.698 12.7043C178.551 13.6427 177.796 14.541 177.435 15.3992C177.33 15.6903 177.28 15.9033 177.285 16.0382C177.304 16.5443 177.603 16.7864 178.181 16.7646C178.853 16.7394 179.829 16.4915 181.109 16.021C182.412 15.5328 184.009 14.8393 185.899 13.9405C185.968 13.921 186.015 13.9446 186.041 14.0112L186.044 14.0871C186.051 14.2726 185.976 14.4275 185.818 14.5517C185.547 14.7308 185.149 14.94 184.625 15.1793C184.123 15.4178 183.496 15.6947 182.743 16.0102C180.872 16.7901 179.509 17.2383 178.656 17.3549C178.541 17.3761 178.425 17.3889 178.309 17.3932C178.194 17.3976 178.078 17.402 177.962 17.4063Z" fill="#573225"/>
<path d="M142.249 21.0994C141.717 21.1195 141.442 20.9018 141.425 20.4464C141.413 20.1259 141.559 19.7065 141.864 19.1883C142.655 18.0268 143.989 16.8111 145.865 15.5412C148.15 14.0363 150.021 13.2565 151.48 13.2016C152.383 13.1676 153.013 13.2706 153.369 13.5106C153.891 13.2038 154.453 13.0391 155.055 13.0164C155.17 13.0121 155.229 13.0352 155.231 13.0858C155.232 13.1195 155.211 13.1541 155.165 13.1896C154.852 13.4717 154.495 13.8483 154.095 14.3194C153.719 14.7896 153.312 15.3708 152.874 16.0629C151.845 17.6557 151.343 18.8147 151.371 19.54C151.377 19.7087 151.392 19.8095 151.417 19.8423L151.418 19.8676C151.422 19.9688 151.357 20.098 151.224 20.255C151.09 20.3952 150.953 20.4679 150.815 20.4731C150.537 20.4835 150.385 20.1514 150.36 19.4767C150.317 18.3297 150.634 17.2198 151.313 16.147L148.428 18.0545C147.343 18.771 146.357 19.3655 145.47 19.8381C144.606 20.2928 143.855 20.6421 143.215 20.8857C142.895 21.016 142.573 21.0872 142.249 21.0994ZM143.768 19.8768C143.907 19.8716 144.056 19.8322 144.215 19.7586C144.513 19.6629 145.026 19.424 145.753 19.042C146.481 18.6599 147.263 18.1912 148.1 17.6361C149.141 16.9551 149.998 16.34 150.673 15.791C151.371 15.2243 151.876 14.7998 152.19 14.5178C152.04 14.2362 151.757 14.1033 151.341 14.119C150.53 14.1495 149.253 14.7043 147.508 15.7834C145.539 17.0399 144.256 18.0595 143.659 18.842C143.461 19.1198 143.366 19.3767 143.375 19.6128C143.382 19.7984 143.513 19.8864 143.768 19.8768Z" fill="#573225"/>
<path d="M29.6185 29.5732C30.2136 29.6376 30.6532 29.8016 30.9372 30.0651C31.2213 30.3287 31.3001 30.6943 31.1738 31.1621C31.0355 31.471 30.7211 31.8274 30.2306 32.2312C29.7499 32.6338 29.2808 32.9694 28.8232 33.2379C28.3753 33.5051 27.683 33.8539 26.7463 34.2842L25.894 34.6857C24.9247 35.0544 24.3137 35.2837 24.0609 35.3735C23.808 35.4633 23.5097 35.5516 23.1659 35.6382C22.8319 35.7235 22.4235 35.7635 21.9406 35.7581C21.3491 35.562 21.1025 35.1115 21.201 34.4065C21.0417 33.916 20.3155 33.7987 19.0224 34.0546C18.3504 34.554 17.7992 34.98 17.3686 35.3326C17.0901 35.5933 16.6817 35.9067 16.1434 36.2727L14.4088 37.7467C13.9093 37.7579 13.732 37.5758 13.877 37.2005C17.5007 33.825 20.0617 31.6976 21.5601 30.8182C21.9364 30.7931 22.1147 30.9058 22.0951 31.1562C20.3169 32.5882 19.7436 33.2283 20.3754 33.0767L22.2891 32.9366C23.749 31.1214 26.1921 30.0003 29.6185 29.5732ZM22.5291 34.2738C22.2909 35.0327 23.3686 34.9275 25.7622 33.9584C28.1543 32.9822 29.5199 32.1412 29.8591 31.4354C30.1969 30.7225 30.0159 30.3732 29.3163 30.3874C28.6152 30.3946 27.9483 30.5215 27.3157 30.768C26.3208 31.0597 25.3722 31.506 24.4699 32.107C23.5481 32.7104 22.9011 33.4327 22.5291 34.2738Z" fill="#573225"/>
<path d="M47.1424 20.7833C47.4898 20.8639 47.5464 20.9699 47.312 21.1012C47.0775 21.2325 46.678 21.3661 46.1133 21.5021C45.5668 21.6286 44.9652 21.7801 44.3084 21.9568L43.124 22.2793C42.477 22.4548 41.8951 22.6294 41.3782 22.8032C40.8613 22.977 40.3256 23.1567 39.771 23.3425C39.2149 23.5212 38.5215 23.7899 37.6907 24.1486C36.8585 24.5003 36.4559 24.8421 36.4828 25.1741C36.5097 25.5062 36.6177 25.8172 36.8067 26.1072C37.0041 26.3888 37.1755 26.6409 37.3208 26.8634C37.4661 27.0859 37.707 27.5335 38.0436 28.2061C38.5242 28.5982 38.8081 28.9602 38.8952 29.2921C38.9809 29.6168 38.9051 30.1111 38.6678 30.775C38.4306 31.439 38.1279 31.9032 37.7599 32.1678C36.3934 33.6506 35.0647 34.6 33.7738 35.0161C32.4927 35.4309 31.5146 35.582 30.8395 35.4693C30.1629 35.3494 29.7426 34.8586 29.5786 33.9968C29.4048 33.1362 30.0255 32.0854 31.4409 30.8445C32.866 29.6024 34.5031 28.8879 36.3522 28.7012C36.7559 28.5634 36.9101 28.3583 36.815 28.0858C36.7296 27.812 36.4224 27.4092 35.8934 26.8772C35.2609 26.0811 34.9565 25.543 34.9803 25.263C35.0138 24.9817 35.1879 24.7012 35.5028 24.4213C35.8176 24.1415 36.3274 23.8337 37.0324 23.4979C38.4319 22.9735 39.5186 22.5901 40.2927 22.3479L42.0506 21.735C42.8693 21.4653 44.0124 21.1624 45.4801 20.8264C46.2491 20.7087 46.8032 20.6943 47.1424 20.7833ZM30.6124 34.1961C30.8042 34.7482 31.1873 34.9556 31.7618 34.8184C33.5732 34.3958 34.8624 33.7721 35.6291 32.9474C36.8903 31.9372 37.6083 31.1441 37.783 30.5681C37.9563 29.9851 37.8313 29.6397 37.4082 29.5321C36.9835 29.4173 36.4967 29.4415 35.9475 29.6047L34.717 29.9222C34.0686 30.0905 33.4578 30.3708 32.8847 30.763C31.0049 32.0399 30.2475 33.1843 30.6124 34.1961Z" fill="#573225"/>
<path d="M48.2033 28.1976C49.5566 27.3946 50.0609 27.3573 49.7162 28.0856C49.2191 28.5559 47.6613 29.7125 45.0428 31.5555C44.8033 32.0593 44.7087 32.4356 44.759 32.6845C44.8078 32.9264 45.2484 32.8715 46.0806 32.5198C46.9212 32.1599 47.9582 31.5056 49.1918 30.5572C49.4912 30.549 49.6368 30.6986 49.6286 31.0058C49.6288 31.3047 49.0721 31.7533 47.9584 32.3514C46.8532 32.9412 45.935 33.3145 45.2039 33.4712C44.4812 33.6197 44.069 33.6163 43.9675 33.4613C43.8743 33.2979 43.8475 32.8674 43.8873 32.1698L39.2695 34.6483C38.7483 34.8008 38.4678 34.679 38.428 34.2829C38.8584 32.8366 39.2169 32.0774 39.5034 32.0052C40.0753 31.9048 40.2884 32.1152 40.1427 32.6364C39.4228 33.5938 39.4695 33.825 40.2828 33.3299C43.7051 31.5909 46.3453 29.8802 48.2033 28.1976Z" fill="#573225"/>
<path d="M65.5952 25.0895C66.1903 25.1539 66.6299 25.3178 66.914 25.5814C67.198 25.8449 67.2769 26.2106 67.1506 26.6784C67.0123 26.9873 66.6979 27.3437 66.2074 27.7475C65.7267 28.1501 65.2575 28.4856 64.7999 28.7541C64.3521 29.0214 63.6598 29.3701 62.723 29.8004L61.8708 30.2019C60.9015 30.5706 60.2905 30.7999 60.0376 30.8898C59.7848 30.9796 59.4865 31.0678 59.1427 31.1544C58.8087 31.2398 58.4002 31.2797 57.9174 31.2743C57.3258 31.0782 57.0793 30.6277 57.1778 29.9228C57.0185 29.4322 56.2922 29.3149 54.9991 29.5709C54.3272 30.0702 53.776 30.4962 53.3454 30.8488C53.0668 31.1096 52.6585 31.423 52.1202 31.789L50.3856 33.2629C49.8861 33.2742 49.7088 33.0921 49.8538 32.7167C53.4774 29.3413 56.0385 27.2138 57.5369 26.3344C57.9132 26.3094 58.0915 26.4221 58.0718 26.6724C56.2936 28.1044 55.7204 28.7446 56.3522 28.5929L58.2658 28.4529C59.7258 26.6376 62.1689 25.5165 65.5952 25.0895ZM58.5058 29.7901C58.2677 30.5489 59.3454 30.4438 61.7389 29.4746C64.1311 28.4984 65.4967 27.6574 65.8359 26.9516C66.1736 26.2387 65.9927 25.8894 65.293 25.9037C64.5919 25.9109 63.9251 26.0377 63.2924 26.2843C62.2976 26.576 61.349 27.0223 60.4467 27.6233C59.5248 28.2267 58.8779 28.949 58.5058 29.7901Z" fill="#573225"/>
<path d="M72.2746 25.0664L86.4419 23.5085C86.8625 23.653 86.8684 23.8564 86.4598 24.1188C86.0511 24.3812 84.4069 24.6627 81.527 24.9632L79.0661 25.2262C78.4453 25.3327 76.7909 25.415 74.1029 25.4729C74.976 25.9693 75.5461 26.8789 75.8133 28.2018C77.7087 26.7042 79.0871 25.9017 79.9486 25.7943C80.3054 25.7717 80.4305 25.8947 80.3242 26.1631L74.7764 30.2231C74.3834 30.2648 74.1652 30.1535 74.1218 29.8891L74.8076 28.9615C74.4211 27.0483 73.4045 25.8407 71.7575 25.3387C71.6922 25.1645 71.8646 25.0738 72.2746 25.0664Z" fill="#573225"/>
<path d="M112.187 12.6768C112.535 12.7574 112.591 12.8634 112.357 12.9947C112.122 13.126 111.723 13.2597 111.158 13.3956C110.612 13.5221 110.01 13.6736 109.353 13.8503L108.169 14.1729C107.522 14.3483 106.94 14.5229 106.423 14.6967C105.906 14.8705 105.37 15.0503 104.816 15.2361C104.26 15.4147 103.566 15.6834 102.736 16.0422C101.903 16.3938 101.501 16.7356 101.528 17.0677C101.555 17.3997 101.663 17.7107 101.852 18.0007C102.049 18.2823 102.22 18.5344 102.366 18.7569C102.511 18.9794 102.752 19.427 103.088 20.0996C103.569 20.4918 103.853 20.8538 103.94 21.1856C104.026 21.5103 103.95 22.0046 103.713 22.6686C103.475 23.3325 103.173 23.7967 102.805 24.0614C101.438 25.5441 100.11 26.4935 98.8186 26.9096C97.5375 27.3245 96.5594 27.4755 95.8843 27.3628C95.2077 27.243 94.7875 26.7521 94.6234 25.8903C94.4496 25.0297 95.0703 23.979 96.4857 22.738C97.9108 21.4959 99.5479 20.7815 101.397 20.5948C101.801 20.4569 101.955 20.2518 101.86 19.9793C101.774 19.7056 101.467 19.3027 100.938 18.7707C100.306 17.9746 100.001 17.4365 100.025 17.1565C100.059 16.8752 100.233 16.5947 100.548 16.3148C100.862 16.035 101.372 15.7272 102.077 15.3914C103.477 14.867 104.563 14.4837 105.337 14.2414L107.095 13.6286C107.914 13.3588 109.057 13.0559 110.525 12.7199C111.294 12.6022 111.848 12.5878 112.187 12.6768ZM95.6572 26.0896C95.849 26.6417 96.2322 26.8492 96.8066 26.7119C98.6181 26.2893 99.9072 25.6657 100.674 24.841C101.935 23.8307 102.653 23.0376 102.828 22.4617C103.001 21.8786 102.876 21.5333 102.453 21.4256C102.028 21.3108 101.541 21.335 100.992 21.4983L99.7618 21.8157C99.1134 21.984 98.5026 22.2643 97.9295 22.6565C96.0497 23.9335 95.2923 25.0778 95.6572 26.0896Z" fill="#573225"/>
<path d="M111.475 20.1809C112.571 20.0443 113.343 20.2397 113.791 20.7672C114.139 21.6426 113.634 22.3727 112.277 22.9574C110.929 23.541 109.75 24.0124 108.738 24.3718C107.71 24.6458 107.368 24.9145 107.712 25.1778C108.055 25.434 108.587 25.4844 109.308 25.3289L113.083 24.2678C115.59 23.2627 116.883 22.8354 116.964 22.9857C117.053 23.1278 116.323 23.514 114.774 24.1445C113.236 24.7738 111.374 25.3704 109.19 25.9343C107.614 26.2327 106.725 25.979 106.522 25.173C104.729 25.9871 103.651 26.3401 103.288 26.2322C102.731 26.2069 102.548 25.9454 102.738 25.4477C102.919 24.9512 103.548 24.4099 104.623 23.8238C104.918 23.6412 105.171 23.7009 105.382 24.0026C105.256 24.1715 104.975 24.3741 104.541 24.6105C104.107 24.8469 103.843 25.0767 103.747 25.3001C103.652 25.5234 103.728 25.6014 103.975 25.5342C105.232 25.1953 106.205 24.476 106.897 23.3764C107.597 22.2755 108.291 21.4855 108.977 21.0063C109.671 20.5187 110.504 20.2436 111.475 20.1809ZM107.442 24.0631C107.775 24.1236 108.793 23.7743 110.497 23.0152C112.208 22.2477 113.027 21.6791 112.952 21.3092C112.799 20.8981 112.247 20.7482 111.296 20.8595C109.876 21.0364 108.592 22.1043 107.442 24.0631Z" fill="#573225"/>
<path d="M117.502 23.8593C117.874 23.3171 118.451 23.0446 119.234 23.0419C120.026 23.038 120.573 23.1411 120.877 23.3512C121.18 23.5613 121.359 23.776 121.413 23.9952C121.466 24.2074 121.454 24.4459 121.377 24.7106C121.299 24.9683 121.043 25.3429 120.61 25.8343C120.178 26.3257 119.478 26.8358 118.511 27.3646L118.011 27.7222C117.689 27.9155 117.327 28.1101 116.925 28.3061C116.64 28.4873 116.437 28.5491 116.315 28.4914C116.193 28.4337 116.182 28.3294 116.282 28.1784C116.37 28.0215 117.143 27.4987 118.599 26.6099C119.172 26.1666 119.619 25.7683 119.939 25.4149C120.264 24.842 120.377 24.4561 120.277 24.2572C120.186 24.057 120.027 23.9383 119.798 23.9012L119.329 23.9597L118.887 24.2335C117.993 24.5272 117.531 24.4025 117.502 23.8593Z" fill="#573225"/>
<path d="M134.456 17.3168C134.988 17.1702 135.212 17.3065 135.126 17.7255L133.15 19.7216L133.444 19.685C135.571 18.5887 137.329 17.9539 138.72 17.7807C139.095 17.7996 139.22 17.948 139.096 18.226C134.665 19.8427 132.524 21.0209 132.674 21.7606C132.784 21.9583 133.026 22.0376 133.399 21.9983C135.709 21.6594 138.223 20.9888 140.942 19.9865C141.455 19.8934 141.586 20.0448 141.334 20.4406C139.901 21.3922 137.194 22.2254 133.213 22.9402C132.224 22.9614 131.642 22.5382 131.466 21.6705L129.293 22.6851C129.049 22.6207 128.918 22.4693 128.9 22.2309L134.456 17.3168Z" fill="#573225"/>
<path d="M160.242 14.1031C160.774 13.9566 160.997 14.0928 160.911 14.5118L158.936 16.508L159.23 16.4714C161.357 15.3751 163.115 14.7403 164.505 14.567C164.881 14.5859 165.006 14.7343 164.881 15.0123C160.451 16.6291 158.31 17.8073 158.46 18.5469C158.57 18.7447 158.812 18.8239 159.185 18.7846C161.495 18.4457 164.009 17.7751 166.727 16.7728C167.24 16.6797 167.371 16.8311 167.12 17.227C165.686 18.1785 162.979 19.0117 158.999 19.7266C158.01 19.7478 157.427 19.3245 157.252 18.4568L155.079 19.4714C154.835 19.407 154.704 19.2557 154.686 19.0173L160.242 14.1031Z" fill="#573225"/>
<path d="M193.77 9.86985C194.281 9.66761 194.608 9.74714 194.752 10.1084C193.43 11.0679 192.744 11.6711 192.693 11.918L192.662 11.9875L193.626 11.5394C195.81 10.6765 197.757 10.1823 199.468 10.0565C199.812 10.021 199.974 10.1758 199.953 10.5211C199.126 11.295 198.423 11.8893 197.845 12.3041C195.095 13.9447 194.017 14.7206 194.612 14.632L196.052 14.3103L199.704 13.3849C200.831 13.1496 201.131 13.1961 200.605 13.5241C200.078 13.845 199.208 14.1612 197.997 14.4726C196.793 14.7757 195.664 15.0477 194.609 15.2886C193.883 15.4227 193.449 15.4367 193.307 15.3304C193.166 15.2242 193.168 15.0379 193.315 14.7717C193.461 14.4984 194.353 13.7491 195.992 12.524C196.7 12.1005 197.186 11.7993 197.451 11.6204C197.714 11.4345 198.067 11.1681 198.509 10.8214L197.687 11.0004C193.66 11.9835 191.736 12.843 191.915 13.579C192.303 14.6536 191.262 15.3921 188.795 15.7944C188.092 15.8455 187.667 15.7782 187.519 15.5924C187.371 15.4067 187.364 15.1962 187.497 14.9608C189.328 13.1942 191.419 11.4972 193.77 9.86985ZM188.786 14.5596C188.41 14.9346 188.285 15.1616 188.412 15.2406C188.546 15.3113 188.923 15.2643 189.542 15.0997C190.963 14.7769 191.435 14.2076 190.959 13.392C190.73 13.2528 190.402 13.3192 189.975 13.5911C189.558 13.8618 189.162 14.1846 188.786 14.5596Z" fill="#573225"/>
<path d="M211.381 7.7734C211.918 7.54616 212.268 7.54258 212.433 7.76265C212.596 7.9756 211.156 9.5369 208.11 12.4465C208.033 12.7623 208.272 12.8274 208.827 12.6416C211.154 11.7391 212.583 11.2146 213.116 11.0681C213.647 10.9144 213.932 10.9336 213.97 11.1256C213.901 11.477 212.894 12.0326 210.95 12.7926C209.005 13.5455 207.759 13.8647 207.214 13.7503C206.668 13.6289 206.521 13.2498 206.774 12.6131L207.54 11.3364L203.689 11.4992C202.839 11.9624 202.184 12.4706 201.723 13.0238C201.263 13.577 200.885 13.8903 200.588 13.9636C200.302 14.0358 200.151 13.8614 200.137 13.4403C200.845 12.477 201.946 11.392 203.438 10.1852C204.939 8.97003 206.028 8.27648 206.706 8.10451C207.394 7.93131 207.456 8.18969 206.893 8.87965C206.556 9.14771 206.157 9.43438 205.697 9.73964L204.777 10.4777L206.371 10.6181C207.946 10.5676 209.617 9.61933 211.381 7.7734Z" fill="#573225"/>
<path d="M2.15313 36.5031C1.60549 36.7931 1.92338 38.0993 2.24367 38.4432C3.3246 39.6039 6.15745 36.6314 6.65823 36.1113C8.73779 33.9518 9.87296 31.3564 11.8489 29.1214C13.5089 27.2436 15.0179 25.244 16.7507 23.414C17.2953 22.8389 18.0924 21.3993 17.6995 22.9419C16.844 26.301 15.7798 29.3005 14.2028 32.5396C13.6092 33.7587 12.1894 36.1657 12.469 37.542C12.6016 38.1942 14.4447 37.2583 14.643 36.875" stroke="black" stroke-linecap="round"/>
</svg>
