<svg width="20" height="20" viewBox="0 0 20 20" fill="none" xmlns="http://www.w3.org/2000/svg">
<path d="M8.58452 17.105C10.411 17.1046 12.1849 16.4694 13.6237 15.3004L18.1474 20L19.6024 18.4883L15.0788 13.7888C16.2045 12.2938 16.8164 10.4505 16.8168 8.55249C16.8168 3.83686 13.1236 0 8.58452 0C4.04545 0 0.352234 3.83686 0.352234 8.55249C0.352234 13.2681 4.04545 17.105 8.58452 17.105ZM8.58452 2.13812C11.9896 2.13812 14.7587 5.01497 14.7587 8.55249C14.7587 12.09 11.9896 14.9669 8.58452 14.9669C5.17944 14.9669 2.41031 12.09 2.41031 8.55249C2.41031 5.01497 5.17944 2.13812 8.58452 2.13812Z" fill="#001569"/>
</svg>
